<svg xmlns="http://www.w3.org/2000/svg" width="368.335" height="392.453" viewBox="0 0 368.335 392.453"><defs><style>.a{fill:#fce0cd;}.b{fill:#fff;}.c{fill:#a095c1;}.d{fill:#e2e2e2;}.e{fill:#645d5c;}.f{fill:#d9d9d9;}.g{fill:#efc0a0;}.h{fill:#febe69;}.i{fill:#cfcfcf;}.j{fill:#7a7473;}.k{fill:#fff2e1;}.l{fill:#c6c6c6;}</style></defs><path class="a" d="M332.542,286.184a5.623,5.623,0,0,1,4.53-1.32,5.32,5.32,0,0,1,3.85,2.56,7.5,7.5,0,0,1,.8,3.04,22.774,22.774,0,0,1-2.32,12.03,14.278,14.278,0,0,1-3.73,4.89c-1.179.939-3.226.98-4.825,1.19A38.375,38.375,0,0,1,329.5,313.3c-1.3,3.521-8.571,15.726-17.716,20.136a52.829,52.829,0,0,0,.75,6.559c.458,2.614.315,4.95,3.948,6.262.241.087,10.547,4.99,10.915,5.142,0,0-4.873,25.265-35.095,25.265s-30.623-24.7-30.623-24.7c.7-.239,12.193-5.615,12.434-5.7,3.633-1.312,3.49-3.648,3.948-6.262a49.516,49.516,0,0,0,.726-5.913,32.32,32.32,0,0,1-12.231-9.452,39.261,39.261,0,0,1-7.722-15.735c-2.367.7-4.223-.478-5.525-1.516a14.423,14.423,0,0,1-3.728-4.893,22.683,22.683,0,0,1-2.313-12.024,7.561,7.561,0,0,1,.793-3.046,5.354,5.354,0,0,1,3.849-2.559,5.671,5.671,0,0,1,4.537,1.327s-1.923-33.076,36.3-33.076C332.3,253.111,332.542,286.184,332.542,286.184Z"/><path class="b" d="M366.337,390.5c-1.7-6.814-5.538-18.332-10.447-23.6a39.011,39.011,0,0,0-12.712-9.146c-2.92-1.195-10.206-4.862-16-7.63-.23.478-.388.8-.388.8a13.664,13.664,0,0,1-6.86,7.65,34.654,34.654,0,0,1-8.9,2.73,1.411,1.411,0,0,0-1.13,1.42c.1,4.83.1,19.63.1,27.78Z"/><path class="b" d="M222.661,390.5c1.7-6.814,5.538-18.332,10.447-23.6a39.011,39.011,0,0,1,12.712-9.146c2.938-1.2,10.447-4.727,16.386-7.351.094.231.153.371.153.371a13.651,13.651,0,0,0,6.86,7.66,34.247,34.247,0,0,0,8.9,2.72,1.43,1.43,0,0,1,1.13,1.43c-.1,4.86-.11,19.8-.11,27.92Z"/><path class="c" d="M279.139,390.5c0-6.362.006-16.909.057-23.516l.8.22a63.821,63.821,0,0,0,29,.33l.954-.249c.046,6.565.046,16.891.046,23.215Z"/><path class="d" d="M342.168,359.474c6.3,2.88,12.045,7.272,15.459,13.383a74.606,74.606,0,0,1,6.782,18.172c.628,2.5,4.487,1.438,3.857-1.063a77.513,77.513,0,0,0-7.356-19.431c-3.718-6.52-9.963-11.422-16.723-14.514a2.058,2.058,0,0,0-2.736.717,2.015,2.015,0,0,0,.717,2.736Z"/><path class="d" d="M224.589,391.029a74.565,74.565,0,0,1,6.782-18.172c3.414-6.111,9.164-10.5,15.459-13.383a2.015,2.015,0,0,0,.717-2.736,2.045,2.045,0,0,0-2.736-.717c-6.76,3.092-13,7.994-16.723,14.514a77.513,77.513,0,0,0-7.356,19.431c-.629,2.5,3.228,3.562,3.857,1.063Z"/><path class="e" d="M303.889,226.663a39.411,39.411,0,0,0-9.778-.7c-20.423-1.122-39.9,14.227-43.841,33.563-1.068,5.214-.962,14.3.009,18.466l1.317,6.928a2.321,2.321,0,0,1,.309-.064,5.671,5.671,0,0,1,4.537,1.327l2.358,2.129c-1.094-4.163-1.577-8.419.9-12.382a31.451,31.451,0,0,1,5.237-5.74c3.751-3.51,13.447-10.723,18.093-13.835a102.584,102.584,0,0,0,17.893,15.134c4.558,2.945,10.086,3.409,18.085,3.01a26.183,26.183,0,0,1,5.117,15.683c3.354-.977,12-5.627,14.452-7.6,2.3-7.325.554-17.264-.629-23.051C334.647,243.323,320.43,229.917,303.889,226.663Z"/><path class="f" d="M335.825,305.676a4.909,4.909,0,0,0-5.007,4.976,4.694,4.694,0,0,0,5.007,5.07c3.142,0,5.007-1.963,5.007-5.07A4.905,4.905,0,0,0,335.825,305.676Z"/><path class="f" d="M253.825,305.676a4.909,4.909,0,0,0-5.007,4.976,4.694,4.694,0,0,0,5.007,5.07c3.142,0,5.007-1.963,5.007-5.07A4.905,4.905,0,0,0,253.825,305.676Z"/><path class="e" d="M290.9,291.236c2.467,0,4.933-.064,7.4-.066a2,2,0,0,0,0-4c-2.466,0-4.932.065-7.4.066a2,2,0,0,0,0,4Z"/><path class="e" d="M260.379,287.763c1.865.6,3.741,1.166,5.606,1.767a2.017,2.017,0,0,0,2.46-1.4,2.044,2.044,0,0,0-1.4-2.46c-1.865-.6-3.741-1.166-5.606-1.767a2.017,2.017,0,0,0-2.46,1.4,2.043,2.043,0,0,0,1.4,2.46Z"/><path class="b" d="M267.738,294.13a7.954,7.954,0,0,1,.51-7.057,9.327,9.327,0,0,1,4.522-3.522c5.428-2.152,12.748-1.087,15.535,4.7a7.356,7.356,0,0,1-.041,5.348,11,11,0,0,1-2.524,3.807c-2.464,2.184-4.708,2.391-8,2.573a10.541,10.541,0,0,1-8.766-3.679A8.3,8.3,0,0,1,267.738,294.13Z"/><path class="b" d="M321.135,294.13a7.954,7.954,0,0,0-.511-7.057,9.322,9.322,0,0,0-4.522-3.522c-5.428-2.152-12.747-1.087-15.534,4.7a7.356,7.356,0,0,0,.041,5.348,11,11,0,0,0,2.524,3.807c2.464,2.184,4.708,2.391,8,2.573a10.539,10.539,0,0,0,8.765-3.679A8.331,8.331,0,0,0,321.135,294.13Z"/><path class="g" d="M287.555,316.885a15.3,15.3,0,0,0,7.373,1.709,12.026,12.026,0,0,0,7.459-2.208,2,2,0,0,0,0-2.829,2.064,2.064,0,0,0-2.829,0c.612-.477.158-.127,0-.026s-.3.182-.453.263c-.08.042-.162.079-.243.12-.217.112-.2-.03.1-.034a2.818,2.818,0,0,0-.625.227,11.231,11.231,0,0,1-1.748.4c.3-.046,0,0-.14.011-.172.017-.343.031-.515.042-.414.027-.828.037-1.243.035q-.556,0-1.112-.04c-.17-.012-.34-.025-.51-.043-.04,0-.656-.1-.22-.023a14.684,14.684,0,0,1-1.633-.362c-.229-.069-.452-.151-.677-.228-.5-.172.318.162-.136-.052-.28-.133-.556-.27-.83-.415a2,2,0,1,0-2.019,3.454Z"/><path class="g" d="M293.866,299.574a34.242,34.242,0,0,1,.809,3.7l-.071-.532a2.24,2.24,0,0,1,.014.511l.071-.532a1.206,1.206,0,0,1-.056.23l.2-.478a1.009,1.009,0,0,1-.081.148l.312-.405a.757.757,0,0,1-.121.119l.405-.312a2.407,2.407,0,0,1-.293.155l.478-.2a2.121,2.121,0,0,1-.494.144l.532-.071a2,2,0,0,1-.464,0l.532.071c-.175-.024-.347-.067-.522-.09a1.522,1.522,0,0,0-.8-.036,1.484,1.484,0,0,0-.744.238,2,2,0,0,0-.717,2.736,1.913,1.913,0,0,0,1.195.919c.407.055.8.158,1.216.176a3.9,3.9,0,0,0,1.8-.43,2.625,2.625,0,0,0,1.449-1.729,4.308,4.308,0,0,0-.018-1.85c-.2-1.192-.477-2.374-.783-3.543a2,2,0,0,0-3.858,1.063Z"/><path class="e" d="M274.4,289.068c-.618,2.008-.215,6.627,3.589,7.021,5.028-.03,5.3-5.615,3.6-8.241C280.206,285.7,276.131,284.8,274.4,289.068Z"/><path class="e" d="M314.666,289.068c.618,2.008.215,6.628-3.589,7.021-5.028-.031-5.3-5.616-3.6-8.242C308.859,285.7,312.934,284.8,314.666,289.068Z"/><path class="e" d="M100.86,232.574l-5.329-3.095a3.689,3.689,0,0,0-.481-.235,54.527,54.527,0,0,0-21.575-4.08c-15.034,0-28.416,7.745-34.354,13.43-9.851,9.431-16.1,26.658-15.312,50.413.268,11.977-.072,21.8-.583,32.02a79.716,79.716,0,0,1-2.906,17.4,25.606,25.606,0,0,1-7.868,12.97,3.5,3.5,0,0,0-.788,4.409c2.449,4.377,10.074,11.973,33.488,11.973,45.589,0,71.842-4.555,83.174-7.175a3.546,3.546,0,0,0,1.7-5.976,16.827,16.827,0,0,1-3.211-4.272,24.589,24.589,0,0,1-2.069-8.679c-1.572-15.047-1.927-37.4-1.3-54.034-.068-8.1-.11-13.987-.3-16.5-1.111-14.778-6.683-25.076-14.2-32.329a31.453,31.453,0,0,0-7.059-5.634Z"/><path class="a" d="M100.461,348.342c-2.287-1.082-4.323-2.044-4.428-2.082-3.634-1.312-3.49-3.648-3.948-6.262a52.9,52.9,0,0,1-.772-6.981c9.149-4.485,16.441-17.017,17.737-20.538.238-.719.765-2.189,1.168-3.878,1.62-.24,3.78-.23,5.01-1.22a14.278,14.278,0,0,0,3.73-4.89,22.756,22.756,0,0,0,2.32-12.03,7.547,7.547,0,0,0-.8-3.04,5.32,5.32,0,0,0-3.85-2.56,5.752,5.752,0,0,0-3.673.707,1.407,1.407,0,0,1-1.682-.148l-3.88-3.626c-5.13-2.027-10.093-9.508-12.931-14.923a59.818,59.818,0,0,1-3.843-11.118.828.828,0,0,0-1.372-.4c-3.7,3.531-16.423,15.5-20.329,17.09a.827.827,0,0,1-.311.056H45.5a.819.819,0,0,0-.7.383A38.179,38.179,0,0,0,41.144,282c-2.322,9.775-2.271,21.136-.562,32.695a36.25,36.25,0,0,0,5.52,9.116,36.821,36.821,0,0,0,12.257,9.908A49.25,49.25,0,0,1,57.612,340c-.458,2.614-.315,4.95-3.949,6.262-.24.087-11.734,5.463-12.434,5.7,0,0,2.59,18.927,32.368,18.927s33.35-19.487,33.35-19.487C106.741,351.316,103.394,349.73,100.461,348.342Z"/><path class="b" d="M145.893,390.5c-1.7-6.814-5.539-18.332-10.447-23.6a39.015,39.015,0,0,0-12.713-9.146c-4.792-1.961-23.247-9.863-27.136-11.609-.233-1.445-.888-4.637-1.121-5.9s-1.032-3.79-2.361-3.723c-4.375.218-11.393,3.309-17.3,3.481-8.305.242-15.839-2.287-17.593-2.222-2.25.083-3.425,6.379-4.763,8.962-4.246,1.8-21.835,8.857-27.087,11.007a39.015,39.015,0,0,0-12.713,9.146c-4.908,5.272-8.743,16.79-10.447,23.6Z"/><path class="d" d="M93.85,347.642c6.777,3.115,13.7,5.94,20.565,8.853a89.65,89.65,0,0,1,11.192,5.118A31.074,31.074,0,0,1,137.3,373.472a76.683,76.683,0,0,1,6.445,17.557c.628,2.5,4.487,1.438,3.857-1.063a88.418,88.418,0,0,0-5.714-16.26,31.723,31.723,0,0,0-11.243-13.538c-3.687-2.715-8.045-4.517-12.065-6.217q-6.417-2.714-12.819-5.467c-3.3-1.417-6.628-2.795-9.893-4.3a2.059,2.059,0,0,0-2.736.718,2.016,2.016,0,0,0,.717,2.736Z"/><path class="d" d="M3.926,391.029A84.213,84.213,0,0,1,9.08,376.057a35.416,35.416,0,0,1,3.824-6.631,30.846,30.846,0,0,1,6.141-5.8c3.665-2.7,7.7-4.382,11.88-6.072q6.3-2.547,12.6-5.094c3.429-1.39,6.879-2.743,10.272-4.221a2.013,2.013,0,0,0,.717-2.736,2.051,2.051,0,0,0-2.736-.718l-.54.232c.606-.259-.268.111-.413.171q-1.044.433-2.09.862-2.8,1.146-5.6,2.279-6.511,2.642-13.028,5.269c-4.314,1.746-8.6,3.4-12.432,6.108A34.539,34.539,0,0,0,6.422,372.4,84.236,84.236,0,0,0,.069,389.966c-.629,2.5,3.228,3.562,3.857,1.063Z"/><path class="b" d="M114.959,316.6c-1.041.178-2.076.4-3.112.605a3.007,3.007,0,0,0-.542.228,1.721,1.721,0,0,0-.636.585,2.289,2.289,0,0,0-.487,1.374,43.8,43.8,0,0,0,.136,5.136,2.387,2.387,0,0,0,.664,1.6,2.241,2.241,0,0,0,1.6.664c1.444-.113,2.882-.263,4.315-.472l.542-.229a1.7,1.7,0,0,0,.636-.584,2.123,2.123,0,0,0,.487-1.374l-.229-3.25-.111-1.57a3.378,3.378,0,0,0-.394-1.6,2.5,2.5,0,0,0-2.271-1.194Z"/><path class="b" d="M111.226,307.1c.138,3.431.321,6.861.518,10.29a2,2,0,0,0,4,0c-.2-3.429-.38-6.859-.518-10.29a2,2,0,0,0-4,0Z"/><path class="h" d="M54.676,344.955c4.939,4.7,9.213,8,16.254,9.775l2.393.219a42.407,42.407,0,0,1-1.578-4C77.731,349,90.191,345.027,94.8,342.28a1.279,1.279,0,0,1,1.486.1,79.81,79.81,0,0,0,10.967,6.879,1.306,1.306,0,0,1,.324,2.032c-6.145,6.68-14.727,15.447-22.944,18.3.914,1.213,1.809,2.4,1.809,2.4-7.105,6.116-16.391,8.965-25.454,11.363-.451.119-1.044.183-1.275-.222a1.079,1.079,0,0,1-.047-.7,96.426,96.426,0,0,1,2.1-9.776s.321-1.354.688-2.9c-7.408-1.424-12.156-5.86-17.743-11.74a55.617,55.617,0,0,1-4.881-6.144,1.311,1.311,0,0,1,.519-1.952,85.527,85.527,0,0,0,11.35-6.4,1.316,1.316,0,0,1,1.651.15Q54.021,344.334,54.676,344.955Z"/><path class="g" d="M67.11,316.885a15.308,15.308,0,0,0,7.373,1.709,12.026,12.026,0,0,0,7.459-2.208,2,2,0,0,0,0-2.829,2.062,2.062,0,0,0-2.828,0c.612-.477.158-.127,0-.026s-.3.182-.453.263c-.08.042-.162.079-.242.12-.217.112-.2-.03.1-.034a2.829,2.829,0,0,0-.624.227,11.257,11.257,0,0,1-1.748.4c.3-.046,0,0-.141.011-.171.017-.343.031-.515.042-.413.027-.828.037-1.242.035q-.557,0-1.113-.04c-.17-.012-.34-.025-.509-.043-.04,0-.656-.1-.22-.023a14.684,14.684,0,0,1-1.633-.362c-.229-.069-.452-.151-.678-.228-.5-.172.319.162-.136-.052-.28-.133-.556-.27-.83-.415a2,2,0,0,0-2.019,3.454Z"/><path class="g" d="M73.422,299.574a34.482,34.482,0,0,1,.809,3.7l-.072-.532a2.184,2.184,0,0,1,.014.511l.072-.532a1.287,1.287,0,0,1-.056.23l.2-.478a.924.924,0,0,1-.081.148l.313-.405a.757.757,0,0,1-.121.119l.405-.312a2.564,2.564,0,0,1-.293.155l.477-.2a2.121,2.121,0,0,1-.494.144l.532-.071a2,2,0,0,1-.464,0l.532.071c-.175-.024-.346-.067-.521-.09a1.526,1.526,0,0,0-.8-.036,1.477,1.477,0,0,0-.743.238,2,2,0,0,0-.718,2.736,1.916,1.916,0,0,0,1.2.919c.407.055.8.158,1.217.176a3.9,3.9,0,0,0,1.8-.43A2.626,2.626,0,0,0,78.08,303.9a4.292,4.292,0,0,0-.017-1.85c-.2-1.192-.477-2.374-.784-3.543a2,2,0,0,0-3.857,1.063Z"/><path class="e" d="M53.955,289.068c-.618,2.008-.215,6.627,3.589,7.021,5.029-.03,5.3-5.615,3.6-8.241C59.762,285.7,55.687,284.8,53.955,289.068Z"/><path class="e" d="M94.221,289.068c.618,2.008.216,6.628-3.589,7.021-5.028-.031-5.3-5.616-3.6-8.242C88.415,285.7,92.49,284.8,94.221,289.068Z"/><path class="i" d="M249.082,59.832a78.385,78.385,0,0,0,.621,8.9,5.6,5.6,0,0,1,2.2-.834,5.671,5.671,0,0,1,4.537,1.327,47.971,47.971,0,0,1,.086-8.9C254.055,60.325,251.193,60.054,249.082,59.832Z"/><path class="i" d="M332.14,61.4a42.408,42.408,0,0,1,.4,7.823,5.671,5.671,0,0,1,4.537-1.327,5.5,5.5,0,0,1,.775.174c.048-.539.037-1.03.037-1.03-.067-2.228-.181-3.9-.389-5.648C335.778,61.392,333.721,61.4,332.14,61.4Z"/><path class="a" d="M332.539,68.89a5.671,5.671,0,0,1,4.537-1.327,5.358,5.358,0,0,1,3.85,2.559,7.575,7.575,0,0,1,.792,3.045,22.686,22.686,0,0,1-2.313,12.025,14.42,14.42,0,0,1-3.728,4.893c-1.185.945-3.23.98-4.834,1.19a37.646,37.646,0,0,1-1.348,4.731c-1.3,3.521-8.57,15.726-17.716,20.135a52.823,52.823,0,0,0,.75,6.56c.458,2.613.315,4.95,3.948,6.262.241.087,10.547,4.99,10.915,5.141,0,0-5.585,25.081-31.955,25.081s-33.763-24.521-33.763-24.521c.7-.238,12.193-5.614,12.434-5.7,3.633-1.312,3.49-3.649,3.948-6.262a49.36,49.36,0,0,0,.725-5.913,32.325,32.325,0,0,1-12.23-9.452A39.245,39.245,0,0,1,258.83,91.6c-2.368.7-4.224-.478-5.526-1.516a14.433,14.433,0,0,1-3.728-4.893,22.685,22.685,0,0,1-2.313-12.025,7.56,7.56,0,0,1,.793-3.045,5.354,5.354,0,0,1,3.849-2.559,5.671,5.671,0,0,1,4.537,1.327s-4.561-41.26,35.143-41.26C335.437,27.63,332.539,68.89,332.539,68.89Z"/><path class="f" d="M332.77,28.482A39.5,39.5,0,0,0,304.463,8.228l-6.214-.891a4.25,4.25,0,0,0,.989-2.8A4.785,4.785,0,0,0,294.452,0c-1.808,0-5.052,1.11-5.052,4.287a5.4,5.4,0,0,0,.669,2.575l-5.157.729c-7.327,1.262-19.364,4.854-28.142,16a39.09,39.09,0,0,0-8.407,18.593c-1.424,7.668-.929,16.928,1.358,26.285,26.56-16.634,62.121-19.291,88.074-.444C340.324,53.751,338.725,39.449,332.77,28.482Z"/><path class="b" d="M278.335,173.2c-.239-4.3-.386-6.186-.6-10.051l-.127.055a77.655,77.655,0,0,1-2.653-15.381,30.12,30.12,0,0,1,1.263-10.234,42.089,42.089,0,0,0,40.249-.378,29.87,29.87,0,0,1,1.386,10.612,77.077,77.077,0,0,1-2.627,15.272c-.215,3.809-.365,5.773-.606,10.1Z"/><path class="h" d="M314.618,173.2c.247-4.438.4-6.39.622-10.383l13.255-28.58c.892-.572,9.636,4.147,14.683,6.213A39,39,0,0,1,355.89,149.6c4.909,5.272,8.744,16.789,10.447,23.6Z"/><path class="h" d="M222.661,173.2c1.7-6.815,5.538-18.332,10.447-23.6a39,39,0,0,1,12.712-9.146c5.52-2.26,13.11-6.25,14.717-5.906l17.2,28.6c.216,3.865.363,5.755.6,10.051Z"/><path class="j" d="M249.742,97.361c.018-.175.038-.347.058-.516a18.614,18.614,0,0,1,2.61-7.567,11.458,11.458,0,0,0,.894.807c1.3,1.038,3.158,2.218,5.526,1.516a39.245,39.245,0,0,0,7.721,15.735,34.34,34.34,0,0,0,9.637,8.2c-.521,2.482-2.885,4.9-6.24,6.6a22.235,22.235,0,0,1-6.638,2.088,22.679,22.679,0,0,1-14.813-2.592,4.882,4.882,0,0,1-1.635-1.43,1.473,1.473,0,0,1-.255-.715c-.007-.106.021-.517.149-.559,3.186-1.077,4.057-4.369,3.9-7.711s-1.012-6.791-1.069-10.147A32,32,0,0,1,249.742,97.361Z"/><path class="k" d="M313.278,118.193a3.337,3.337,0,0,0-2.023-.543,2.807,2.807,0,0,0-1.949,1.677c-1.088,2.232-.486,4.953.706,7.132s2.918,4.016,4.252,6.11c2.85,4.474,3.787,9.954,3.587,15.254-.2,5.209-1.673,10.472-2.908,15.537,9.758-7.352,16.346-12.841,24.352-21.166.945-.982,1.848-2.368,1.623-3.712a3.61,3.61,0,0,0-.893-1.639c-4.763-5.735-12.48-6.686-18.4-11.213C321.279,125.368,316.072,119.721,313.278,118.193Z"/><path class="k" d="M279.526,118.193a3.337,3.337,0,0,1,2.023-.543,2.809,2.809,0,0,1,1.949,1.677c1.088,2.232.486,4.953-.706,7.132s-2.918,4.016-4.252,6.11c-2.85,4.474-3.787,9.954-3.587,15.254.2,5.209,1.7,10.472,2.935,15.537-9.758-7.352-16.373-12.841-24.379-21.166-.945-.982-1.848-2.368-1.623-3.712a3.61,3.61,0,0,1,.893-1.639c4.762-5.735,12.48-6.686,18.4-11.213C271.525,125.368,276.732,119.721,279.526,118.193Z"/><path class="l" d="M255.057,66.954a10.021,10.021,0,0,1,.505-5c23.828-11.906,53.242-12.9,76.559.334,3.028,7.137-.263,10.066-5.582,10.561-3.172.3-6.8-.736-9.731-1.98-6.681-2.836-13.605-5.905-20.858-6.167a44.814,44.814,0,0,0-19.765,3.017c-3.04,1.086-7.783,3.626-10.919,4.394C259.733,73.471,255.8,71.081,255.057,66.954Z"/><path class="g" d="M287.555,99.588a15.3,15.3,0,0,0,7.373,1.708,12.013,12.013,0,0,0,7.459-2.208,2,2,0,0,0,0-2.828,2.062,2.062,0,0,0-2.829,0c.612-.477.158-.127,0-.026s-.3.181-.453.262c-.08.042-.162.08-.243.121-.217.112-.2-.03.1-.035a2.87,2.87,0,0,0-.625.227,11.118,11.118,0,0,1-1.748.4c.3-.046,0,0-.14.011-.172.017-.343.032-.515.043q-.621.039-1.243.034c-.371,0-.742-.014-1.112-.04q-.255-.016-.51-.042c-.04,0-.656-.1-.22-.023a14.688,14.688,0,0,1-1.633-.363c-.229-.068-.452-.15-.677-.227-.5-.172.318.162-.136-.053-.28-.132-.556-.269-.83-.414a2,2,0,1,0-2.019,3.454Z"/><path class="g" d="M293.866,82.277a34.189,34.189,0,0,1,.809,3.7l-.071-.532a2.24,2.24,0,0,1,.014.511l.071-.532a1.225,1.225,0,0,1-.056.23l.2-.478a1.063,1.063,0,0,1-.081.148l.312-.405a.757.757,0,0,1-.121.119l.405-.313a2.276,2.276,0,0,1-.293.155l.478-.2a2.171,2.171,0,0,1-.494.144l.532-.072a1.947,1.947,0,0,1-.464,0l.532.071c-.175-.024-.347-.067-.522-.09a2.244,2.244,0,0,0-1.541.2,2,2,0,0,0-.717,2.737,1.916,1.916,0,0,0,1.195.919c.407.055.8.158,1.216.176a3.9,3.9,0,0,0,1.8-.431,2.621,2.621,0,0,0,1.449-1.728,4.308,4.308,0,0,0-.018-1.85c-.2-1.192-.477-2.374-.783-3.543a2,2,0,0,0-3.858,1.063Z"/><path class="e" d="M274.4,71.771c-.618,2.008-.215,6.627,3.589,7.02,5.028-.03,5.3-5.615,3.6-8.241C280.206,68.4,276.131,67.506,274.4,71.771Z"/><path class="e" d="M314.666,71.771c.618,2.008.215,6.627-3.589,7.02-5.028-.03-5.3-5.615-3.6-8.241C308.859,68.4,312.934,67.506,314.666,71.771Z"/><path class="h" d="M34.429,136.308c-9.826.237-16.218-6.994-16.163-13.659a77.994,77.994,0,0,1,2.376-16.628c1.849-6.6,3.169-18.212,3.169-34.312h0C23.021,47.955,29.27,30.728,39.121,21.3c5.938-5.685,19.32-13.43,34.354-13.43A54.574,54.574,0,0,1,95.3,12.047l3.063,1.242,3.65,2.151c2.909,1.715,3.947,3.184,6.94,6.072,7.517,7.252,12.742,20.3,13.574,31.986a134.91,134.91,0,0,1,.26,18.211c.267,20.06,3.966,31.287,5.874,36.813a36.7,36.7,0,0,1,2.318,12.566c.068,7.508-10.307,17.508-21.035,13.661Z"/><path class="a" d="M36.058,68.9a5.709,5.709,0,0,0-4.566-1.336,5.389,5.389,0,0,0-3.875,2.576,7.622,7.622,0,0,0-.8,3.065,22.836,22.836,0,0,0,2.328,12.1A14.507,14.507,0,0,0,32.9,90.232a9.173,9.173,0,0,0,5.894,2.1,38.892,38.892,0,0,0,7.438,14.583,32.665,32.665,0,0,0,12.129,9.438,48.85,48.85,0,0,1-.749,6.346c-.458,2.613-.315,4.95-3.949,6.262-.24.087-11.734,5.463-12.434,5.7,0,0-.21.072-.544.183a78.116,78.116,0,0,0,32.839,7.959c11.377.045,26.314-3.908,34.2-8.382l-.776-.32c-.367-.151-10.674-5.054-10.914-5.141-3.634-1.312-3.49-3.649-3.948-6.262a53,53,0,0,1-.76-6.719c9.407-4.256,16.936-16.869,18.262-20.468.2-.615.615-1.772.982-3.145l.766-.12a9.626,9.626,0,0,0,4.474-2.017,14.507,14.507,0,0,0,3.753-4.925,22.838,22.838,0,0,0,2.328-12.1,7.622,7.622,0,0,0-.8-3.065,5.389,5.389,0,0,0-3.874-2.576,5.664,5.664,0,0,0-4.782,1.543C106.081,67,98.5,56.933,96.059,52.354c-1.591-2.982-3.383-8.869-4.742-13.955a.652.652,0,0,0-1.144-.234A51.519,51.519,0,0,1,63.725,56.08c-2.272.676-.769-5.389.008-9.649a.653.653,0,0,0-1.1-.586c-6.669,6.516-13.842,13.262-20.529,18.733Z"/><path class="b" d="M2.216,173.2c1.7-6.815,5.539-18.332,10.447-23.6a39,39,0,0,1,12.713-9.146c5.52-2.26,13.109-6.25,14.717-5.906a77.963,77.963,0,0,0,33.431,8.262c11.534.046,26.728-4.018,34.526-8.569.892-.572,9.636,4.147,14.683,6.213a39,39,0,0,1,12.713,9.146c4.908,5.272,8.743,16.789,10.447,23.6Z"/><path class="d" d="M121.724,142.177c6.248,3.266,12.067,7.25,15.543,13.535a75.1,75.1,0,0,1,6.7,18.02c.629,2.5,4.487,1.438,3.857-1.063a78.076,78.076,0,0,0-7.27-19.28c-3.787-6.712-10.1-11.158-16.808-14.666-2.279-1.191-4.3,2.26-2.019,3.454Z"/><path class="d" d="M4.145,173.732a75.144,75.144,0,0,1,6.7-18.02c3.453-6.244,9.246-10.418,15.543-13.535,2.307-1.142.283-4.593-2.019-3.454-6.759,3.346-13.048,8-16.808,14.666a78.076,78.076,0,0,0-7.27,19.28c-.629,2.5,3.227,3.562,3.857,1.063Z"/><path class="g" d="M67.11,99.588a15.307,15.307,0,0,0,7.373,1.708,12.013,12.013,0,0,0,7.459-2.208,2,2,0,0,0,0-2.828,2.06,2.06,0,0,0-2.828,0c.612-.477.158-.127,0-.026s-.3.181-.453.262c-.08.042-.162.08-.242.121-.217.112-.2-.03.1-.035a2.881,2.881,0,0,0-.624.227,11.144,11.144,0,0,1-1.748.4c.3-.046,0,0-.141.011-.171.017-.343.032-.515.043-.413.026-.828.037-1.242.034-.371,0-.742-.014-1.113-.04-.17-.011-.34-.025-.509-.042-.04,0-.656-.1-.22-.023a14.688,14.688,0,0,1-1.633-.363c-.229-.068-.452-.15-.678-.227-.5-.172.319.162-.136-.053-.28-.132-.556-.269-.83-.414a2,2,0,0,0-2.019,3.454Z"/><path class="g" d="M73.422,82.277a34.429,34.429,0,0,1,.809,3.7l-.072-.532a2.184,2.184,0,0,1,.014.511l.072-.532a1.308,1.308,0,0,1-.056.23l.2-.478a.969.969,0,0,1-.081.148l.313-.405a.757.757,0,0,1-.121.119l.405-.313a2.415,2.415,0,0,1-.293.155l.477-.2a2.171,2.171,0,0,1-.494.144l.532-.072a1.947,1.947,0,0,1-.464,0l.532.071c-.175-.024-.346-.067-.521-.09a1.506,1.506,0,0,0-.8-.036,1.486,1.486,0,0,0-.743.237,2,2,0,0,0-.718,2.737,1.919,1.919,0,0,0,1.2.919c.407.055.8.158,1.217.176a3.906,3.906,0,0,0,1.8-.431,2.622,2.622,0,0,0,1.448-1.728,4.292,4.292,0,0,0-.017-1.85c-.2-1.192-.477-2.374-.784-3.543a2,2,0,0,0-3.857,1.063Z"/><path class="e" d="M53.955,71.771c-.618,2.008-.215,6.627,3.589,7.02,5.029-.03,5.3-5.615,3.6-8.241C59.762,68.4,55.687,67.506,53.955,71.771Z"/><path class="e" d="M94.221,71.771c.618,2.008.216,6.627-3.589,7.02-5.028-.03-5.3-5.615-3.6-8.241C88.415,68.4,92.49,67.506,94.221,71.771Z"/></svg>